<?xml version="1.0" encoding="UTF-8"?>
<svg width="428px" height="86px" viewBox="0 0 428 86" version="1.1" xmlns="http://www.w3.org/2000/svg" xmlns:xlink="http://www.w3.org/1999/xlink">
    <!-- Generator: Sketch 47.1 (45422) - http://www.bohemiancoding.com/sketch -->
    <title>logo</title>
    <desc>Created with Sketch.</desc>
    <defs></defs>
    <g id="Page-1" stroke="none" stroke-width="1" fill="none" fill-rule="evenodd">
        <g id="logo" fill-rule="nonzero">
            <path d="M372.2,71.1 C371.6,70.5 371.3,69.8 371.3,68.9 C371.3,68 371.6,67.3 372.2,66.7 C372.8,66.1 373.5,65.8 374.4,65.8 C375.3,65.8 376,66.1 376.6,66.7 C377.2,67.3 377.5,68 377.5,68.9 C377.5,69.8 377.2,70.5 376.6,71.1 C376,71.7 375.3,72 374.4,72 C373.5,72 372.8,71.7 372.2,71.1 Z M414.8,69.8 C414.8,70.4 414.6,71 414.1,71.4 C413.6,71.8 413.1,72 412.4,72 C412,72 411.5,71.9 411.2,71.6 C410.8,71.3 410.6,71 410.4,70.4 L407.9,63.3 L390.6,63.3 L387,70.5 C386.6,71.4 385.8,71.8 384.9,71.8 C384.3,71.8 383.8,71.6 383.3,71.2 C382.9,70.8 382.6,70.3 382.6,69.7 C382.6,69.3 382.7,69 382.9,68.5 L398.3,39.1 C398.6,38.6 399,38.1 399.5,37.9 C400,37.6 400.5,37.5 401.1,37.5 C401.7,37.5 402.3,37.7 402.7,38 C403.2,38.3 403.5,38.8 403.8,39.3 L414.7,68.8 C414.8,69.2 414.8,69.5 414.8,69.8 Z M392.6,59.5 L406.4,59.5 L400.7,43.5 L392.6,59.5 Z M420.8,71.3 C420.4,70.9 420.2,70.2 420.2,69.5 L422.5,40.1 C422.5,39.4 422.8,38.8 423.3,38.3 C423.8,37.9 424.4,37.7 425.1,37.7 C425.9,37.7 426.5,37.9 426.9,38.4 C427.3,38.8 427.5,39.5 427.5,40.2 L425.2,69.6 C425.2,70.3 424.9,70.9 424.4,71.4 C423.9,71.8 423.3,72 422.6,72 C421.9,72 421.2,71.8 420.8,71.3 Z" id="_x2E_AI" fill="#263238"></path>
            <path d="M260.5,41.9 L259.6,52.5 L273.3,52.5 C274,52.5 274.5,52.7 274.9,53 C275.3,53.3 275.5,53.8 275.5,54.4 C275.5,55.8 274.7,56.6 273.1,56.6 L259.3,56.6 L258.2,69.6 C258.1,70.3 257.9,70.9 257.4,71.4 C256.9,71.8 256.3,72 255.6,72 C254.9,72 254.3,71.8 253.8,71.3 C253.4,70.9 253.2,70.2 253.2,69.5 L255.6,40.3 C255.6,39.5 255.9,38.9 256.3,38.5 C256.7,38.1 257.4,37.9 258.1,37.9 L275.3,37.9 C276,37.9 276.5,38.1 276.9,38.4 C277.3,38.8 277.5,39.2 277.5,39.8 C277.5,41.2 276.7,41.9 275.1,41.9 L260.5,41.9 Z M307.3,69.8 C307.3,70.4 307.1,71 306.6,71.4 C306.1,71.8 305.6,72 304.9,72 C304.5,72 304,71.9 303.7,71.6 C303.3,71.3 303.1,71 302.9,70.4 L300.4,63.3 L283,63.3 L279.4,70.5 C279,71.4 278.2,71.8 277.3,71.8 C276.7,71.8 276.2,71.6 275.7,71.2 C275.3,70.8 275,70.3 275,69.7 C275,69.3 275.1,69 275.3,68.5 L290.7,39.1 C291,38.6 291.4,38.1 291.9,37.9 C292.4,37.6 292.9,37.5 293.5,37.5 C294.1,37.5 294.7,37.7 295.1,38 C295.6,38.3 295.9,38.8 296.2,39.3 L307.1,68.8 C307.2,69.2 307.3,69.5 307.3,69.8 Z M285,59.5 L298.8,59.5 L293.1,43.5 L285,59.5 Z M318.5,70.2 C316.3,68.9 314.5,67.1 313.3,64.7 C312.1,62.3 311.5,59.4 311.5,56.2 C311.5,52.5 312.2,49.2 313.5,46.4 C314.9,43.6 316.8,41.4 319.3,39.9 C321.8,38.4 324.8,37.6 328.1,37.6 C330.4,37.6 332.6,37.9 334.5,38.6 C336.4,39.2 338,40.1 339.3,41.2 C340,41.7 340.4,42.4 340.4,43.2 C340.4,43.7 340.2,44.2 339.8,44.6 C339.4,45 339,45.2 338.5,45.2 C338.1,45.2 337.6,45 337.2,44.7 C334.8,42.7 331.8,41.7 328.3,41.7 C324.6,41.7 321.7,43 319.7,45.6 C317.7,48.2 316.6,51.7 316.6,56.3 C316.6,60.1 317.5,63 319.3,65.1 C321.1,67.1 323.6,68.1 326.9,68.1 C328.5,68.1 330,67.8 331.5,67.3 C333,66.8 334.4,66 335.6,65.1 C336,64.8 336.5,64.6 336.9,64.6 C337.4,64.6 337.8,64.8 338.1,65.2 C338.4,65.6 338.6,66 338.6,66.6 C338.6,67.4 338.3,68 337.6,68.5 C336.3,69.7 334.6,70.6 332.7,71.3 C330.8,72 328.7,72.3 326.4,72.3 C323.4,72.1 320.7,71.5 318.5,70.2 Z M351.1,41.9 L350.2,52.6 L364.5,52.6 C365.2,52.6 365.7,52.8 366.1,53.1 C366.5,53.5 366.7,53.9 366.7,54.5 C366.7,55.2 366.5,55.7 366.1,56.1 C365.7,56.5 365.1,56.7 364.3,56.7 L350,56.7 L349.1,67.9 L364.3,67.9 C365,67.9 365.5,68.1 365.9,68.4 C366.3,68.8 366.5,69.2 366.5,69.8 C366.5,70.4 366.3,70.9 365.9,71.3 C365.5,71.7 364.9,71.9 364.1,71.9 L346.4,71.9 C345.6,71.9 345,71.7 344.6,71.3 C344.2,70.9 344.1,70.3 344.1,69.5 L346.4,40.5 C346.4,39.7 346.7,39.1 347.1,38.7 C347.5,38.3 348.2,38.1 348.9,38.1 L366.6,38.1 C367.3,38.1 367.8,38.3 368.2,38.6 C368.6,39 368.8,39.4 368.8,40 C368.8,41.4 368,42.1 366.4,42.1 L351.1,42.1 L351.1,41.9 Z" id="FACE" fill="#263238"></path>
            <path d="M141.5,53.5 C142,54.1 142.3,54.8 142.2,55.8 L141.5,64.2 C141.4,65.8 141.2,67 140.9,67.9 C140.6,68.7 140.1,69.4 139.5,69.9 C138.8,70.4 137.9,70.8 136.5,71.2 C135.3,71.5 133.9,71.8 132.3,71.9 C130.8,72.1 129.3,72.2 128,72.2 C124.6,72.2 121.7,71.5 119.2,70.2 C116.7,68.9 114.8,67 113.5,64.5 C112.2,62 111.5,59.1 111.5,55.8 C111.5,52.1 112.3,48.9 113.8,46.2 C115.3,43.4 117.4,41.3 120.2,39.8 C123,38.3 126.2,37.5 129.9,37.5 C132.2,37.5 134.2,37.7 136,38.2 C137.8,38.7 139.3,39.2 140.4,39.8 C141.1,40.2 141.7,40.8 142.1,41.4 C142.5,42 142.7,42.6 142.7,43.3 C142.7,44.2 142.4,45 141.7,45.7 C141.1,46.4 140.3,46.8 139.3,46.8 C138.6,46.8 137.9,46.6 137.2,46.1 C136.1,45.6 135,45.1 134,44.9 C133,44.7 131.6,44.5 130,44.5 C127,44.5 124.6,45.5 123,47.5 C121.4,49.5 120.5,52.3 120.5,55.8 C120.5,58.9 121.2,61.3 122.7,63 C124.2,64.6 126.4,65.5 129.4,65.5 C130.7,65.5 132.2,65.3 133.7,64.9 L134.2,58.7 L131,58.7 C128.8,58.7 127.6,57.7 127.6,55.8 C127.6,54.8 127.9,54.1 128.6,53.5 C129.3,52.9 130.1,52.7 131.2,52.7 L139.2,52.7 C140.1,52.6 140.9,52.9 141.5,53.5 Z M179.6,68.1 C179.6,69.2 179.2,70.1 178.3,70.9 C177.4,71.7 176.4,72 175.3,72 C174.6,72 173.9,71.8 173.3,71.4 C172.7,71 172.2,70.4 172,69.6 L170.3,64.7 L155.3,64.7 L152.9,69.5 C152.5,70.3 151.9,70.9 151.3,71.3 C150.6,71.7 149.9,71.9 149.2,71.9 C148.1,71.9 147.2,71.6 146.4,70.9 C145.6,70.2 145.2,69.4 145.2,68.4 C145.2,67.8 145.4,67.1 145.8,66.4 L160.1,40.3 C160.6,39.4 161.3,38.7 162.1,38.3 C163,37.8 163.9,37.6 164.9,37.6 C165.9,37.6 166.8,37.8 167.6,38.3 C168.4,38.8 169,39.4 169.3,40.3 L179.7,66.8 C179.5,67.2 179.6,67.7 179.6,68.1 Z M158.5,58.1 L167.9,58.1 L164.1,47.2 L158.5,58.1 Z M218.8,38.9 C219.5,39.7 219.8,40.8 219.7,42.1 L217.6,68.1 C217.5,69.3 217,70.3 216.3,71 C215.6,71.7 214.6,72.1 213.4,72.1 C212.3,72.1 211.4,71.7 210.7,71 C210,70.3 209.7,69.3 209.9,68.1 L211,54 L204.8,64.1 C204.2,65.1 203.5,65.9 202.9,66.3 C202.3,66.7 201.5,67 200.7,67 C199.9,67 199.2,66.8 198.6,66.3 C198,65.9 197.5,65.1 197,64.1 L192.3,54.5 L191.2,68 C191.1,69.2 190.7,70.1 190,70.9 C189.3,71.7 188.3,72 187.1,72 C186,72 185.1,71.6 184.4,70.9 C183.7,70.2 183.5,69.2 183.6,68 L185.7,41.9 C185.8,40.6 186.3,39.6 187.1,38.8 C187.9,38 189,37.6 190.2,37.6 C192,37.6 193.3,38.6 194.1,40.5 L201.4,56.8 L211.5,40.6 C212.1,39.6 212.8,38.9 213.5,38.4 C214.2,37.9 215,37.7 215.9,37.7 C217.1,37.7 218.1,38.1 218.8,38.9 Z M234.4,44.7 L233.9,51.1 L245,51.1 C246.3,51.1 247.2,51.4 247.9,51.9 C248.6,52.4 248.9,53.2 248.9,54.2 C248.9,55.4 248.5,56.4 247.8,57 C247.1,57.6 246,57.9 244.5,57.9 L233.4,57.9 L232.8,64.9 L244.9,64.9 C246.2,64.9 247.1,65.2 247.8,65.8 C248.5,66.4 248.8,67.2 248.8,68.2 C248.8,70.6 247.3,71.8 244.3,71.8 L227.7,71.8 C226.4,71.8 225.4,71.4 224.7,70.7 C224,70 223.8,69 223.9,67.7 L225.9,42 C226,40.7 226.5,39.7 227.2,39 C228,38.3 229,37.9 230.3,37.9 L247,37.9 C248.3,37.9 249.2,38.2 249.9,38.7 C250.6,39.3 250.9,40 250.9,41 C250.9,43.5 249.4,44.7 246.4,44.7 L234.4,44.7 L234.4,44.7 Z" id="GAME" fill="#263238"></path>
            <path d="M80.5,85.5 L5.5,85.5 C2.7,85.5 0.5,83.3 0.5,80.5 L0.5,5.5 C0.5,2.7 2.7,0.5 5.5,0.5 L80.5,0.5 C83.3,0.5 85.5,2.7 85.5,5.5 L85.5,80.5 C85.5,83.3 83.3,85.5 80.5,85.5 Z" id="background" fill="#CE2028"></path>
            <path d="M74.9,59.4 C76.8,61 77,63.9 75.3,65.8 L71.4,70.2 C69.7,72.1 66.8,72.3 64.9,70.6 L43.7,51.2 L33.3,63.1 C31.6,65 28.7,65.2 26.8,63.5 L18.1,55.5 L17.3,56.4 C15.7,58.3 12.8,58.5 10.9,56.8 C9,55.2 8.8,52.3 10.5,50.4 L14.4,46 C16.1,44.1 19,43.9 20.9,45.6 L29.6,53.6 L40,41.7 C41.7,39.8 44.6,39.6 46.5,41.3 L67.7,60.7 L68.5,59.8 C70.2,58 73.1,57.8 74.9,59.4 Z M74.9,22.5 C73,20.9 70.2,21.1 68.5,22.9 L62.7,29.5 L47.3,15.4 C45.4,13.7 42.5,13.9 40.9,15.8 L33.8,23.9 C32.1,25.9 32.4,29 34.6,30.5 C36.5,31.9 39.2,31.4 40.8,29.6 L44.7,25.2 L60.1,39.3 C62,41 64.9,40.9 66.6,38.9 L75.4,28.8 C77,27 76.8,24.1 74.9,22.5 Z" fill="#FFFFFF"></path>
        </g>
    </g>
</svg>